<?xml version="1.0" standalone="no"?>
<!DOCTYPE svg PUBLIC "-//W3C//DTD SVG 20010904//EN"
 "http://www.w3.org/TR/2001/REC-SVG-20010904/DTD/svg10.dtd">
<svg version="1.0" xmlns="http://www.w3.org/2000/svg"
 width="1000.000000pt" height="1000.000000pt" viewBox="0 0 1000.000000 1000.000000"
 preserveAspectRatio="xMidYMid meet">
<metadata>
Created by potrace 1.11, written by Peter Selinger 2001-2013
</metadata>
<g transform="translate(0.000000,1000.000000) scale(0.100000,-0.100000)"
fill="#000000" stroke="none">
<path d="M8420 6433 c-128 -15 -207 -28 -270 -45 -41 -11 -82 -21 -91 -23 -72
-15 -258 -105 -379 -184 -75 -50 -258 -219 -317 -292 -77 -97 -150 -226 -201
-353 -22 -54 -42 -94 -45 -89 -2 4 -10 26 -17 48 -19 59 -96 211 -142 280 -48
70 -135 172 -197 230 -56 52 -186 150 -230 173 -18 9 -52 27 -75 39 -105 56
-295 123 -396 140 -173 29 -220 31 -820 32 l-625 2 2 -823 2 -822 -26 44 c-55
91 -141 175 -245 237 -70 41 -94 63 -69 63 13 0 110 100 142 147 84 121 121
262 115 430 -10 243 -98 408 -295 552 -78 57 -259 131 -356 145 -22 3 -65 10
-95 15 -31 5 -368 10 -767 10 l-713 1 -2 -816 -3 -817 -32 49 c-61 95 -173
193 -282 249 l-34 17 60 58 c150 143 213 298 208 515 -3 157 -6 169 -61 304
-79 192 -297 348 -578 413 -88 21 -119 22 -838 25 l-748 4 0 -1384 c0 -1087 3
-1386 13 -1389 20 -7 1438 -2 1507 6 172 18 322 59 450 122 134 66 221 141
292 252 l43 65 3 -224 2 -224 743 1 c408 1 762 5 787 8 62 9 161 25 186 30 68
14 242 81 305 118 89 52 213 172 257 248 l31 55 0 -195 c0 -107 0 -211 0 -230
l1 -36 608 1 c538 2 696 6 767 22 11 2 34 6 50 9 194 33 426 133 590 254 210
154 382 381 461 608 10 28 21 52 25 52 3 0 11 -19 18 -42 7 -24 37 -92 66
-153 185 -383 530 -655 960 -755 204 -48 432 -55 620 -19 28 5 66 12 85 15 68
11 226 67 325 114 286 137 507 354 651 637 73 143 111 265 139 438 14 86 15
388 2 425 -3 8 -8 33 -11 55 -13 100 -84 305 -144 415 -25 47 -105 169 -138
211 -65 83 -294 289 -322 289 -5 0 -17 9 -27 20 -10 11 -21 17 -26 15 -4 -3
-11 0 -15 6 -10 16 -175 92 -267 123 -109 37 -191 55 -322 72 -48 6 -260 11
-295 7z m265 -677 c80 -15 218 -77 279 -126 132 -105 219 -232 265 -385 95
-320 -6 -670 -247 -861 -55 -43 -162 -103 -192 -107 -8 -2 -19 -5 -25 -8 -47
-28 -241 -42 -355 -26 -108 15 -240 73 -330 145 -224 179 -330 487 -270 783
41 202 150 374 303 478 39 26 123 70 147 76 3 1 12 4 20 8 33 14 103 28 162
34 35 3 64 6 65 7 3 3 143 -11 178 -18z m-7375 -9 c147 -26 214 -91 214 -207
0 -124 -65 -180 -244 -215 -20 -4 -471 -8 -565 -6 -20 1 -21 7 -21 214 0 116
3 214 7 217 10 7 567 4 609 -3z m2354 -11 c118 -35 167 -92 168 -196 1 -76
-25 -126 -83 -163 -77 -47 -153 -57 -465 -57 l-281 0 0 218 0 217 301 -1 c252
-1 311 -4 360 -18z m2211 -14 c86 -18 85 -17 110 -26 91 -31 192 -94 258 -160
134 -133 196 -291 202 -511 7 -243 -56 -416 -204 -562 -88 -86 -230 -158 -351
-178 -19 -3 -43 -8 -52 -11 -35 -11 -500 -7 -506 3 -5 8 -8 1355 -3 1445 1 17
19 18 239 16 164 -1 258 -5 307 -16z m-4415 -1024 c185 -56 235 -125 205 -285
-8 -42 -47 -89 -96 -113 -83 -43 -141 -48 -517 -50 l-358 -1 0 231 0 231 376
-4 c206 -2 382 -6 390 -9z m2360 -16 c109 -36 163 -101 161 -197 -1 -135 -76
-203 -248 -226 -45 -6 -214 -9 -403 -7 l-325 3 -1 228 -1 229 376 -4 c353 -4
380 -5 441 -26z"/>
</g>
</svg>
